<?xml version="1.0" encoding="UTF-8" standalone="no"?>
<svg
   xmlns:dc="http://purl.org/dc/elements/1.1/"
   xmlns:cc="http://creativecommons.org/ns#"
   xmlns:rdf="http://www.w3.org/1999/02/22-rdf-syntax-ns#"
   xmlns:svg="http://www.w3.org/2000/svg"
   xmlns="http://www.w3.org/2000/svg"
   version="1.1"
   id="svg4517"
   viewBox="0 0 744.09448819 1052.3622047"
   height="297mm"
   width="210mm">
  <defs
     id="defs4519" />
  <metadata
     id="metadata4522">
    <rdf:RDF>
      <cc:Work
         rdf:about="">
        <dc:format>image/svg+xml</dc:format>
        <dc:type
           rdf:resource="http://purl.org/dc/dcmitype/StillImage" />
        <dc:title></dc:title>
      </cc:Work>
    </rdf:RDF>
  </metadata>
  <g
     id="layer1">
    <g
       transform="matrix(2.184666,0,0,2.6547609,607.69943,-596.49987)"
       id="g4658">
      <g
         id="g4534">
        <ellipse
           style="fill:#1f7aff;stroke:#000000"
           cx="293.392"
           cy="146.47301"
           rx="19.993999"
           ry="11.478"
           id="ellipse4536" />
        <ellipse
           style="fill:#1f7aff;stroke:#000000"
           cx="293.39301"
           cy="157.95"
           rx="19.995001"
           ry="11.478"
           id="ellipse4538" />
      </g>
      <g
         id="g4540">
        <rect
           style="fill:#ffff5f;stroke:#000000"
           x="146.388"
           y="194.965"
           width="21.011"
           height="29.757"
           id="rect4542" />
        <rect
           style="fill:#bf3d00;stroke:#000000"
           x="90.706001"
           y="182"
           width="55.681999"
           height="55.687"
           id="rect4544" />
        <rect
           style="stroke:#000000"
           x="109.621"
           y="237.687"
           width="17.853001"
           height="74.605003"
           id="rect4546" />
        <path
           style="fill:#b9ff5f;stroke:#000000"
           d="m 102.566,363.727 c -4.09,-4.089 -6.62,-9.741 -6.62,-15.981 0,-12.483 10.119,-22.604 22.601,-22.604 12.482,0 22.6,10.12 22.6,22.604 0,6.24 -2.529,11.893 -6.619,15.981 l 9.566,9.567 c 6.539,-6.539 10.583,-15.571 10.583,-25.549 0,-19.956 -16.176,-36.133 -36.129,-36.133 -19.953,0 -36.129,16.177 -36.129,36.133 0,9.978 4.043,19.01 10.582,25.549 l 9.565,-9.567 z"
           id="path4548" />
      </g>
      <polygon
         style="fill:#b3b3b3;stroke:#000000"
         points="360.634,457.431 425.077,362.28 425.302,362.28 425.302,156.4 167.285,156.4 167.285,362.28 167.303,362.28 231.746,457.431 "
         id="polygon4550" />
      <g
         id="g4552">
        <ellipse
           style="fill:#69ff5f;stroke:#000000"
           cx="292.94699"
           cy="59.442001"
           rx="16.507999"
           ry="13.124"
           id="ellipse4554" />
        <rect
           style="fill:#3fe6ff;stroke:#000000"
           x="233.49899"
           y="59.442001"
           width="125.816"
           height="80.417"
           id="rect4556" />
        <rect
           style="fill:#ff69ff;stroke:#000000"
           x="289.60101"
           y="25.405001"
           width="6.6919999"
           height="20.915001"
           id="rect4558" />
        <ellipse
           style="fill:#ff3f00;stroke:#000000"
           cx="293.39301"
           cy="16.007"
           rx="11.6"
           ry="12.185"
           id="ellipse4560" />
        <circle
           style="fill:#ffffff;stroke:#000000"
           cx="265.69199"
           cy="88.667999"
           r="16.101"
           id="circle4562" />
        <circle
           style="fill:#ffffff;stroke:#000000"
           cx="321.78299"
           cy="88.667999"
           r="16.101"
           id="circle4564" />
        <circle
           style="fill:#f9ff2e"
           cx="265.69199"
           cy="88.667999"
           r="14.521"
           id="circle4566" />
        <circle
           style="fill:#f9ff2e"
           cx="321.78201"
           cy="88.667999"
           r="14.521"
           id="circle4568" />
        <rect
           style="fill:#ffffff;stroke:#000000"
           x="256.39301"
           y="110.102"
           width="72.259003"
           height="25.506001"
           id="rect4570" />
        <rect
           x="260.64301"
           y="112.652"
           width="64.607002"
           height="20.405001"
           id="rect4572" />
        <rect
           style="fill:#00ab03;stroke:#000000"
           x="224.99899"
           y="82.221001"
           width="8.5"
           height="34.858002"
           id="rect4574" />
        <rect
           style="fill:#00ab03;stroke:#000000"
           x="359.315"
           y="82.221001"
           width="8.5010004"
           height="34.858002"
           id="rect4576" />
      </g>
      <line
         style="fill:none;stroke:#000000;stroke-width:5"
         x1="633.72803"
         y1="619.97699"
         x2="606.289"
         y2="710.79303"
         id="line4578" />
      <g
         id="g4580">
        <g
           id="g4582">
          <line
             style="fill:none;stroke:#000000;stroke-width:3"
             x1="192.26801"
             y1="376.79099"
             x2="227.45399"
             y2="445.466"
             id="line4584" />
          <line
             style="fill:none;stroke:#000000;stroke-width:3"
             x1="205.285"
             y1="376.79099"
             x2="236.073"
             y2="445.466"
             id="line4586" />
          <line
             style="fill:none;stroke:#000000;stroke-width:3"
             x1="218.30299"
             y1="376.79099"
             x2="244.692"
             y2="445.466"
             id="line4588" />
          <line
             style="fill:none;stroke:#000000;stroke-width:3"
             x1="231.32001"
             y1="376.79099"
             x2="253.312"
             y2="445.466"
             id="line4590" />
          <line
             style="fill:none;stroke:#000000;stroke-width:3"
             x1="244.33701"
             y1="376.79099"
             x2="261.931"
             y2="445.466"
             id="line4592" />
          <line
             style="fill:none;stroke:#000000;stroke-width:3"
             x1="257.35501"
             y1="376.79099"
             x2="270.54999"
             y2="445.466"
             id="line4594" />
          <line
             style="fill:none;stroke:#000000;stroke-width:3"
             x1="270.37201"
             y1="376.79099"
             x2="279.16901"
             y2="445.466"
             id="line4596" />
          <line
             style="fill:none;stroke:#000000;stroke-width:3"
             x1="283.39001"
             y1="376.79099"
             x2="287.78799"
             y2="445.466"
             id="line4598" />
          <line
             style="fill:none;stroke:#000000;stroke-width:3"
             x1="296.40701"
             y1="376.79099"
             x2="296.40601"
             y2="445.465"
             id="line4600" />
          <line
             style="fill:none;stroke:#000000;stroke-width:3"
             x1="309.42499"
             y1="376.79001"
             x2="305.02499"
             y2="445.465"
             id="line4602" />
          <line
             style="fill:none;stroke:#000000;stroke-width:3"
             x1="322.44199"
             y1="376.79001"
             x2="313.64499"
             y2="445.465"
             id="line4604" />
          <line
             style="fill:none;stroke:#000000;stroke-width:3"
             x1="335.45999"
             y1="376.79001"
             x2="322.26401"
             y2="445.465"
             id="line4606" />
          <line
             style="fill:none;stroke:#000000;stroke-width:3"
             x1="348.47699"
             y1="376.79001"
             x2="330.883"
             y2="445.465"
             id="line4608" />
          <line
             style="fill:none;stroke:#000000;stroke-width:3"
             x1="361.49399"
             y1="376.79001"
             x2="339.50201"
             y2="445.465"
             id="line4610" />
          <line
             style="fill:none;stroke:#000000;stroke-width:3"
             x1="374.51199"
             y1="376.79001"
             x2="348.121"
             y2="445.465"
             id="line4612" />
          <line
             style="fill:none;stroke:#000000;stroke-width:3"
             x1="387.52899"
             y1="376.79001"
             x2="356.73999"
             y2="445.465"
             id="line4614" />
          <line
             style="fill:none;stroke:#000000;stroke-width:3"
             x1="400.547"
             y1="376.79001"
             x2="365.35901"
             y2="445.465"
             id="line4616" />
        </g>
      </g>
      <g
         id="g4618">
        <rect
           style="fill:#ffff5f;stroke:#000000"
           x="425.302"
           y="188.795"
           width="21.011999"
           height="29.756001"
           id="rect4620" />
        <rect
           style="fill:#bf3d00;stroke:#000000"
           x="446.31299"
           y="175.82899"
           width="55.681"
           height="55.688"
           id="rect4622" />
        <rect
           style="stroke:#000000"
           x="465.228"
           y="231.517"
           width="17.853001"
           height="74.603996"
           id="rect4624" />
        <path
           style="fill:#b9ff5f;stroke:#000000"
           d="m 490.135,357.556 c 4.09,-4.089 6.62,-9.741 6.62,-15.981 0,-12.483 -10.119,-22.604 -22.601,-22.604 -12.482,0 -22.6,10.12 -22.6,22.604 0,6.24 2.529,11.893 6.619,15.981 l -9.566,9.567 c -6.539,-6.539 -10.583,-15.571 -10.583,-25.549 0,-19.956 16.176,-36.133 36.13,-36.133 19.953,0 36.129,16.177 36.129,36.133 0,9.978 -4.043,19.01 -10.581,25.549 l -9.567,-9.567 z"
           id="path4626" />
      </g>
      <g
         id="g4628">
        <rect
           style="fill:#afd8a6;stroke:#000000"
           x="175.58299"
           y="166.85001"
           width="173.323"
           height="150.213"
           id="rect4630" />
        <rect
           style="fill:#f2ec63;stroke:#000000"
           x="188.06799"
           y="182.842"
           width="52.641998"
           height="118.229"
           id="rect4632" />
        <rect
           style="fill:#c7e4c8;stroke:#000000"
           x="262.24399"
           y="182.842"
           width="75.595001"
           height="118.229"
           id="rect4634" />
      </g>
      <circle
         style="fill:#808080;stroke:#000000"
         cx="387.186"
         cy="214.974"
         r="32.971001"
         id="circle4636" />
      <circle
         style="fill:#ff3f00;stroke:#000000"
         cx="387.186"
         cy="214.974"
         r="26.17"
         id="circle4638" />
      <path
         style="fill:#42a046"
         d="M -284.828,247.948"
         id="path4640" />
      <path
         style="fill:#42a046"
         d="M -284.828,231.197"
         id="path4642" />
      <rect
         style="fill:#42a046"
         x="316.74899"
         y="457.431"
         width="23.806999"
         height="106.569"
         id="rect4644" />
      <rect
         style="fill:#42a046"
         x="235.769"
         y="457.431"
         width="23.806999"
         height="106.569"
         id="rect4646" />
      <polygon
         style="fill:#342f8f"
         points="228.339,547.246 209.861,587.472 285.295,587.472 285.484,587.064 266.245,546.838 247.672,523.981 "
         id="polygon4648" />
      <polygon
         style="fill:#342f8f"
         points="309.319,547.246 290.841,587.472 366.275,587.472 366.464,587.064 347.225,546.838 328.652,523.981 "
         id="polygon4650" />
    </g>
  </g>
</svg>
