<?xml version="1.0" encoding="UTF-8" standalone="no"?>
<!-- Created with Inkscape (http://www.inkscape.org/) -->

<svg
   xmlns:dc="http://purl.org/dc/elements/1.1/"
   xmlns:cc="http://creativecommons.org/ns#"
   xmlns:rdf="http://www.w3.org/1999/02/22-rdf-syntax-ns#"
   xmlns:svg="http://www.w3.org/2000/svg"
   xmlns="http://www.w3.org/2000/svg"
   xmlns:sodipodi="http://sodipodi.sourceforge.net/DTD/sodipodi-0.dtd"
   xmlns:inkscape="http://www.inkscape.org/namespaces/inkscape"
   width="1024"
   height="768"
   id="svg4302"
   version="1.1"
   inkscape:version="0.91 r13725"
   viewBox="0 0 1024 768"
   sodipodi:docname="fullr1.svg">
  <defs
     id="defs4304" />
  <sodipodi:namedview
     id="base"
     pagecolor="#ffffff"
     bordercolor="#666666"
     borderopacity="1.0"
     inkscape:pageopacity="0.0"
     inkscape:pageshadow="2"
     inkscape:zoom="0.94"
     inkscape:cx="558.47869"
     inkscape:cy="382"
     inkscape:current-layer="layer1"
     inkscape:document-units="px"
     showgrid="false"
     inkscape:window-width="2560"
     inkscape:window-height="1377"
     inkscape:window-x="-8"
     inkscape:window-y="-8"
     inkscape:window-maximized="1" />
  <metadata
     id="metadata4307">
    <rdf:RDF>
      <cc:Work
         rdf:about="">
        <dc:format>image/svg+xml</dc:format>
        <dc:type
           rdf:resource="http://purl.org/dc/dcmitype/StillImage" />
        <dc:title></dc:title>
      </cc:Work>
    </rdf:RDF>
  </metadata>
  <g
     id="layer1"
     inkscape:label="Layer 1"
     inkscape:groupmode="layer">
    <g
       id="g4621"
       transform="translate(312.35341,42.58095)">
      <g
         id="g4497">
        <ellipse
           id="ellipse4499"
           ry="11.478"
           rx="19.993999"
           cy="146.47301"
           cx="293.392"
           style="fill:#1f7aff;stroke:#000000" />
        <ellipse
           id="ellipse4501"
           ry="11.478"
           rx="19.995001"
           cy="157.95"
           cx="293.39301"
           style="fill:#1f7aff;stroke:#000000" />
      </g>
      <g
         id="g4503">
        <rect
           id="rect4505"
           height="29.757"
           width="21.011"
           y="194.965"
           x="146.388"
           style="fill:#ffff5f;stroke:#000000" />
        <rect
           id="rect4507"
           height="55.687"
           width="55.681999"
           y="182"
           x="90.706001"
           style="fill:#bf3d00;stroke:#000000" />
        <rect
           id="rect4509"
           height="74.605003"
           width="17.853001"
           y="237.687"
           x="109.621"
           style="stroke:#000000" />
        <path
           id="path4511"
           d="m 102.566,363.727 c -4.09,-4.089 -6.62,-9.741 -6.62,-15.981 0,-12.483 10.119,-22.604 22.601,-22.604 12.482,0 22.6,10.12 22.6,22.604 0,6.24 -2.529,11.893 -6.619,15.981 l 9.566,9.567 c 6.539,-6.539 10.583,-15.571 10.583,-25.549 0,-19.956 -16.176,-36.133 -36.129,-36.133 -19.953,0 -36.129,16.177 -36.129,36.133 0,9.978 4.043,19.01 10.582,25.549 l 9.565,-9.567 z"
           inkscape:connector-curvature="0"
           style="fill:#b9ff5f;stroke:#000000" />
      </g>
      <polygon
         id="polygon4513"
         points="167.285,362.28 167.303,362.28 231.746,457.431 360.634,457.431 425.077,362.28 425.302,362.28 425.302,156.4 167.285,156.4 "
         style="fill:#b3b3b3;stroke:#000000" />
      <g
         id="g4515">
        <ellipse
           id="ellipse4517"
           ry="13.124"
           rx="16.507999"
           cy="59.442001"
           cx="292.94699"
           style="fill:#69ff5f;stroke:#000000" />
        <rect
           id="rect4519"
           height="80.417"
           width="125.816"
           y="59.442001"
           x="233.49899"
           style="fill:#3fe6ff;stroke:#000000" />
        <rect
           id="rect4521"
           height="20.915001"
           width="6.6919999"
           y="25.405001"
           x="289.60101"
           style="fill:#ff69ff;stroke:#000000" />
        <ellipse
           id="ellipse4523"
           ry="12.185"
           rx="11.6"
           cy="16.007"
           cx="293.39301"
           style="fill:#ff3f00;stroke:#000000" />
        <circle
           id="circle4525"
           r="16.101"
           cy="88.667999"
           cx="265.69199"
           style="fill:#ffffff;stroke:#000000" />
        <circle
           id="circle4527"
           r="16.101"
           cy="88.667999"
           cx="321.78299"
           style="fill:#ffffff;stroke:#000000" />
        <circle
           id="circle4529"
           r="14.521"
           cy="88.667999"
           cx="265.69199"
           style="fill:#f9ff2e" />
        <circle
           id="circle4531"
           r="14.521"
           cy="88.667999"
           cx="321.78201"
           style="fill:#f9ff2e" />
        <rect
           id="rect4533"
           height="25.506001"
           width="72.259003"
           y="110.102"
           x="256.39301"
           style="fill:#ffffff;stroke:#000000" />
        <rect
           id="rect4535"
           height="20.405001"
           width="64.607002"
           y="112.652"
           x="260.64301" />
        <rect
           id="rect4537"
           height="34.858002"
           width="8.5"
           y="82.221001"
           x="224.99899"
           style="fill:#00ab03;stroke:#000000" />
        <rect
           id="rect4539"
           height="34.858002"
           width="8.5010004"
           y="82.221001"
           x="359.315"
           style="fill:#00ab03;stroke:#000000" />
      </g>
      <line
         id="line4541"
         y2="710.79303"
         x2="606.289"
         y1="619.97699"
         x1="633.72803"
         style="fill:none;stroke:#000000;stroke-width:5" />
      <g
         id="g4543">
        <g
           id="g4545">
          <line
             id="line4547"
             y2="445.466"
             x2="227.45399"
             y1="376.79099"
             x1="192.26801"
             style="fill:none;stroke:#000000;stroke-width:3" />
          <line
             id="line4549"
             y2="445.466"
             x2="236.073"
             y1="376.79099"
             x1="205.285"
             style="fill:none;stroke:#000000;stroke-width:3" />
          <line
             id="line4551"
             y2="445.466"
             x2="244.692"
             y1="376.79099"
             x1="218.30299"
             style="fill:none;stroke:#000000;stroke-width:3" />
          <line
             id="line4553"
             y2="445.466"
             x2="253.312"
             y1="376.79099"
             x1="231.32001"
             style="fill:none;stroke:#000000;stroke-width:3" />
          <line
             id="line4555"
             y2="445.466"
             x2="261.931"
             y1="376.79099"
             x1="244.33701"
             style="fill:none;stroke:#000000;stroke-width:3" />
          <line
             id="line4557"
             y2="445.466"
             x2="270.54999"
             y1="376.79099"
             x1="257.35501"
             style="fill:none;stroke:#000000;stroke-width:3" />
          <line
             id="line4559"
             y2="445.466"
             x2="279.16901"
             y1="376.79099"
             x1="270.37201"
             style="fill:none;stroke:#000000;stroke-width:3" />
          <line
             id="line4561"
             y2="445.466"
             x2="287.78799"
             y1="376.79099"
             x1="283.39001"
             style="fill:none;stroke:#000000;stroke-width:3" />
          <line
             id="line4563"
             y2="445.465"
             x2="296.40601"
             y1="376.79099"
             x1="296.40701"
             style="fill:none;stroke:#000000;stroke-width:3" />
          <line
             id="line4565"
             y2="445.465"
             x2="305.02499"
             y1="376.79001"
             x1="309.42499"
             style="fill:none;stroke:#000000;stroke-width:3" />
          <line
             id="line4567"
             y2="445.465"
             x2="313.64499"
             y1="376.79001"
             x1="322.44199"
             style="fill:none;stroke:#000000;stroke-width:3" />
          <line
             id="line4569"
             y2="445.465"
             x2="322.26401"
             y1="376.79001"
             x1="335.45999"
             style="fill:none;stroke:#000000;stroke-width:3" />
          <line
             id="line4571"
             y2="445.465"
             x2="330.883"
             y1="376.79001"
             x1="348.47699"
             style="fill:none;stroke:#000000;stroke-width:3" />
          <line
             id="line4573"
             y2="445.465"
             x2="339.50201"
             y1="376.79001"
             x1="361.49399"
             style="fill:none;stroke:#000000;stroke-width:3" />
          <line
             id="line4575"
             y2="445.465"
             x2="348.121"
             y1="376.79001"
             x1="374.51199"
             style="fill:none;stroke:#000000;stroke-width:3" />
          <line
             id="line4577"
             y2="445.465"
             x2="356.73999"
             y1="376.79001"
             x1="387.52899"
             style="fill:none;stroke:#000000;stroke-width:3" />
          <line
             id="line4579"
             y2="445.465"
             x2="365.35901"
             y1="376.79001"
             x1="400.547"
             style="fill:none;stroke:#000000;stroke-width:3" />
        </g>
      </g>
      <g
         id="g4581">
        <rect
           id="rect4583"
           height="29.756001"
           width="21.011999"
           y="188.795"
           x="425.302"
           style="fill:#ffff5f;stroke:#000000" />
        <rect
           id="rect4585"
           height="55.688"
           width="55.681"
           y="175.82899"
           x="446.31299"
           style="fill:#bf3d00;stroke:#000000" />
        <rect
           id="rect4587"
           height="74.603996"
           width="17.853001"
           y="231.517"
           x="465.228"
           style="stroke:#000000" />
        <path
           id="path4589"
           d="m 490.135,357.556 c 4.09,-4.089 6.62,-9.741 6.62,-15.981 0,-12.483 -10.119,-22.604 -22.601,-22.604 -12.482,0 -22.6,10.12 -22.6,22.604 0,6.24 2.529,11.893 6.619,15.981 l -9.566,9.567 c -6.539,-6.539 -10.583,-15.571 -10.583,-25.549 0,-19.956 16.176,-36.133 36.13,-36.133 19.953,0 36.129,16.177 36.129,36.133 0,9.978 -4.043,19.01 -10.581,25.549 l -9.567,-9.567 z"
           inkscape:connector-curvature="0"
           style="fill:#b9ff5f;stroke:#000000" />
      </g>
      <g
         id="g4591">
        <rect
           id="rect4593"
           height="92.766182"
           width="245.66342"
           y="166.85001"
           x="175.58299"
           style="fill:#afd8a6;stroke:#000000" />
        <rect
           id="rect4595"
           height="90.569366"
           width="247.32283"
           y="262.62924"
           x="174.2382"
           style="fill:#f2ec63;stroke:#000000"
           ry="0" />
      </g>
      <circle
         id="circle4599"
         r="32.971001"
         cy="214.974"
         cx="387.186"
         style="fill:#808080;stroke:#000000" />
      <circle
         id="circle4601"
         r="26.17"
         cy="214.974"
         cx="387.186"
         style="fill:#ff3f00;stroke:#000000" />
      <path
         id="path4603"
         d="M -284.828,247.948"
         inkscape:connector-curvature="0"
         style="fill:#42a046" />
      <path
         id="path4605"
         d="M -284.828,231.197"
         inkscape:connector-curvature="0"
         style="fill:#42a046" />
      <rect
         id="rect4607"
         height="106.569"
         width="23.806999"
         y="457.431"
         x="316.74899"
         style="fill:#42a046" />
      <rect
         id="rect4609"
         height="106.569"
         width="23.806999"
         y="457.431"
         x="235.769"
         style="fill:#42a046" />
      <polygon
         id="polygon4611"
         points="247.672,523.981 228.339,547.246 209.861,587.472 285.295,587.472 285.484,587.064 266.245,546.838 "
         style="fill:#342f8f" />
      <polygon
         id="polygon4613"
         points="328.652,523.981 309.319,547.246 290.841,587.472 366.275,587.472 366.464,587.064 347.225,546.838 "
         style="fill:#342f8f" />
    </g>
  </g>
</svg>
